Fast.and.Furious.5.Rio.Heist.2011.NEW.HQ.720p.VIDEO.TS.XviD.AC3.Hive-CM8

 
http://img24.imageshack.us/img24/4606/fastfivefullmovie.jpg 
http://image.bayimg.com/oaimnaade.jpg


Description: Fast and Furious 5 Rio Heist 2011 NEW HQ VIDEO TS XviD AC3 Hive-CM8

Dominic and his crew find themselves on the wrong side of the law once again as they try to switch lanes between a ruthless drug lord and a relentless federal agent. 

 Director: Justin Lin
 Writers: Chris Morgan, Gary Scott Thompson (characters)
Stars: Vin Diesel, Paul Walker and Dwayne Johnson


info:
========================


Video: 720x304 @bitrate 1900 2pass
 Audio: English AC3 2.0 Stereo
 Sample: yes 3 included, daylight,dark and action parts
 General
 Complete name: Fast.and.Furious.5.Rio.Heist.2011.NEW.HQ.VIDEO.TS.XviD.AC3.Hive-CM8.avi
 Format: AVI
 Format/Info: Audio Video Interleave
 File size: 1.76 GiB
 Duration: 1h 56mn
 Overall bit rate: 2 167 Kbps
 Writing application: Nandub v1.0rc2
 Writing library: Nandub build 1853/release

 Video
 ID: 0
 Format: MPEG-4 Visual
 Format profile: Advanced Simple@L5
 Format settings, BVOP: 2
 Format settings, QPel: Yes
 Format settings, GMC: No warppoints
 Format settings, Matrix: Default (H.263)
 Muxing mode: Packed bitstream
 Codec ID: XVID
 Codec ID/Hint: XviD
 Duration: 1h 56mn
 Bit rate: 1 901 Kbps
 Width: 720 pixels
 Height: 304 pixels
 Display aspect ratio: 2.35:1
 Frame rate: 25.000 fps
 Color space: YUV
 Chroma subsampling: 4:2:0
 Bit depth: 8 bits
 Scan type: Progressive
 Compression mode: Lossy
 Bits/(Pixel*Frame): 0.347
 Stream size: 1.55 GiB (88%)
 Writing library: XviD 1.2.1 (UTC 2008-12-04)

 Audio
 ID: 1
 Format: AC-3
 Format/Info: Audio Coding 3
 Mode extension: CM (complete main)
 Codec ID: 2000
 Duration: 1h 56mn
 Bit rate mode: Constant
 Bit rate: 256 Kbps
 Channel(s): 2 channels
 Channel positions: Front: L R
 Sampling rate: 48.0 KHz
 Bit depth: 16 bits
 Compression mode: Lossy
 Stream size: 213 MiB (12%)
 Alignment: Split accross interleaves
 Interleave, duration: 40 ms (1.00 video frame)
 Interleave, preload duration: 500 ms

screens:
 
http://img850.imageshack.us/img850/7200/fafaffaffaffaafafaafa.png 
http://img710.imageshack.us/img710/6569/89985956.png 
http://img41.imageshack.us/img41/7726/fafafa.png 
http://img819.imageshack.us/img819/9828/fafaffaafa.png 
http://img607.imageshack.us/img607/3509/fafaffaffafafaafa.png
